<svg width="206" height="259" viewBox="0 0 206 259" fill="none" xmlns="http://www.w3.org/2000/svg">
<path d="M205.972 181.012C205.972 161.206 197.611 143.202 184.061 129.57C197.899 115.938 205.972 97.9331 205.972 78.1279C205.972 35.431 167.339 0.964905 119.481 0.964905C119.481 0.964905 163.714 0.964905 119.481 0.964905C75.2482 0.964905 73.92 52.4069 119.481 52.4069C165.042 52.4069 119.481 52.4069 119.481 52.4069C135.338 52.4069 148.311 63.9813 148.311 78.1279C148.311 92.2744 135.338 103.849 119.481 103.849C119.481 103.849 115.472 103.849 75.0732 103.849C34.6747 103.849 32.2563 155.291 75.0732 155.291C117.89 155.291 119.481 155.291 119.481 155.291C135.338 155.291 148.311 166.865 148.311 181.012C148.311 195.158 135.338 206.733 119.481 206.733C119.481 206.733 64.6477 206.733 28.5252 206.733C-7.59718 206.733 -11.2989 258.175 28.5252 258.175C68.3492 258.175 119.481 258.175 119.481 258.175C167.339 258.175 205.972 223.709 205.972 181.012ZM29.3127 0.964905C13.1293 0.964905 0.0283203 12.6531 0.0283203 27.0911C0.0283203 41.5294 13.1293 53.2174 29.3127 53.2174C45.4962 53.2174 58.597 41.5294 58.597 27.0911C58.597 12.6531 45.4962 0.964905 29.3127 0.964905Z" fill="#675CE2"/>
</svg>
