<svg id="b0aebea8-1e8f-45ac-97f3-8a58c1a50945" data-name="Layer 1" xmlns="http://www.w3.org/2000/svg" width="1007.52903" height="665.08182" viewBox="0 0 1007.52903 665.08182"><title>team_collaboration</title><rect x="83.40135" y="188.77318" width="21.84614" height="28.39998" fill="#3f3d56"/><rect x="567.40135" y="586.77318" width="21.84614" height="28.39998" fill="#3f3d56"/><rect x="991.26726" y="408.69367" width="21.84614" height="28.39998" transform="translate(1328.8485 -696.75576) rotate(90)" fill="#3f3d56"/><circle cx="847.03113" cy="525.34588" r="86.29225" fill="#2f2e41"/><polygon points="880.36 643.515 906.156 638.845 897.789 584.981 871.993 589.651 880.36 643.515" fill="#2f2e41"/><rect x="920.60998" y="713.7391" width="26.21537" height="46.9692" transform="translate(1887.59052 1178.87098) rotate(169.73894)" fill="#2f2e41"/><ellipse cx="933.40247" cy="766.14234" rx="21.84614" ry="8.1923" transform="translate(-370.25546 667.26536) rotate(-40.26106)" fill="#2f2e41"/><ellipse cx="983.91981" cy="764.6434" rx="21.84614" ry="8.1923" transform="translate(-357.31957 699.55818) rotate(-40.26106)" fill="#2f2e41"/><circle cx="840.98993" cy="504.23829" r="29.49229" fill="#fff"/><circle cx="828.86869" cy="493.66689" r="9.83076" fill="#3f3d56"/><path d="M1011.33916,548.92823c1.29768-31.94668-26.23575-59.00573-61.49764-60.43808s-64.89929,23.3044-66.197,55.25107,23.21382,39.20523,58.47572,40.63758S1010.04147,580.8749,1011.33916,548.92823Z" transform="translate(-96.23549 -117.45909)" fill="#675ce2"/><ellipse cx="863.58767" cy="627.08395" rx="13.5449" ry="43.14613" transform="translate(-36.82468 1211.27828) rotate(-77.0899)" fill="#2f2e41"/><ellipse cx="1032.9761" cy="655.25299" rx="13.5449" ry="43.14613" transform="translate(67.26168 1398.26034) rotate(-77.0899)" fill="#2f2e41"/><path d="M966.96683,676.81165a19.66153,19.66153,0,1,1-38.69413,7.00476c-1.93431-10.68509,6.327-14.46612,17.01214-16.40042S965.03252,666.12656,966.96683,676.81165Z" transform="translate(-96.23549 -117.45909)" fill="#fff"/><polygon points="398.526 582.508 395.526 621.508 424.526 624.508 417.526 577.508 398.526 582.508" fill="#ffb9b9"/><path d="M393.72274,344.814l.00006,0c24.71917,7.61743,37.905,36.03129,29.45129,63.46412l-10.74047,34.85372-10.71941-3.30328-2.22649-14.826-2.42793,13.39169-68.90022-21.2322-2.02409-13.47818-2.20725,12.17426-7.75742-2.39052,8.4332-27.36641C334.33194,354.5333,365.27747,336.04834,393.72274,344.814Z" transform="translate(-96.23549 -117.45909)" fill="#2f2e41"/><path d="M355.33059,449.42515a16.23161,16.23161,0,0,0-18.85239,14.93c-.431,6.04269,1.65466,13.117,11.02207,18.3561,20.00793,11.19023,63.39615,35.58538,63.39615,35.58538l82.78374,15.89867s41.8334,33.38085,47.07452,14.39483S501.06,518.01228,501.06,518.01228l-76.05358-19.50461-48.46134-35.05246S367.66484,451.60169,355.33059,449.42515Z" transform="translate(-96.23549 -117.45909)" fill="#ffb9b9"/><polygon points="232.636 409.747 240.956 433.196 290.881 421.093 278.021 403.695 232.636 409.747" fill="#ffb9b9"/><polygon points="99.125 630.247 61.304 626.464 87.779 600.746 106.69 613.605 99.125 630.247" fill="#ffb9b9"/><circle cx="288.7436" cy="274.77029" r="31.06299" fill="#ffb9b9"/><path d="M360.64115,397.0994s-17.39794,20.42367-26.47512,23.44939-31.77015,31.77015-20.42367,50.68095,52.95025-4.53859,52.95025-4.53859l-1.51287-18.9108s17.39794-30.25728,21.1801-32.52658S360.64115,397.0994,360.64115,397.0994Z" transform="translate(-96.23549 -117.45909)" fill="#ffb9b9"/><path d="M357.61672,433.62092c-11.56552-17.41336-38.39294-14.29783-45.04734,5.519q-.17768.52913-.33988,1.07614c-6.05146,20.42366,3.02573,55.21954,3.02573,55.21954L328.871,536.2829s35.5523-16.64151,61.271,11.34648L386.35984,518.885s10.59-24.20583-3.02573-41.60376C374.66885,466.20892,366.61633,447.171,357.61672,433.62092Z" transform="translate(-96.23549 -117.45909)" fill="#575a89"/><path d="M178.71925,742.41063l-1.51287,11.34648s-49.92451-9.83362-60.51456-.75643-10.59005,15.12864-18.9108,9.07718c-3.53632-2.57187-.51438-8.83276,4.13006-15.18246a76.42425,76.42425,0,0,1,28.1662-23.38688c12.48395-6.11222,29.73116-14.99328,29.73116-17.40663,0-3.78216,13.61578-15.12864,18.91081-9.07718s15.12864,22.693,15.12864,22.693Z" transform="translate(-96.23549 -117.45909)" fill="#2f2e41"/><path d="M490.09223,720.96751s-11.0877,39.31093-7.05581,41.32687,12.09567,8.06378,24.19134,8.06378c7.14718,0,17.81368,3.87125,25.345,7.0388a61.09527,61.09527,0,0,0,27.84692,4.7904c6.349-.43722,11.74668-1.92587,11.31829-5.78136-1.008-9.07176-20.15945-11.0877-20.15945-11.0877L531.4191,739.111s-3.5279-16.63155-6.55182-16.63155a6.62232,6.62232,0,0,1-4.53588-1.512Z" transform="translate(-96.23549 -117.45909)" fill="#2f2e41"/><path d="M376.78236,354.57589a24.5627,24.5627,0,0,1,21.43381-3.74405l.87873.27079c16.94257,5.221,25.95276,24.7845,20.1249,43.69636l0,.00007-5.677-1.74942,1.23368-7.26105-3.49474,6.56429-33.67-10.37571-1.00155-6.77325-1.11411,6.12129-6.62385-2.0412q-11.73189,21.59673-.86756,50.15667l-11.28357-3.47713-2.003-13.54649-2.2283,12.24257-21.50925-6.62826,4.13774-28.46224C341.38587,369.23007,358.51831,355.62464,376.78236,354.57589Z" transform="translate(-96.23549 -117.45909)" fill="#2f2e41"/><rect x="419.608" y="53" width="257" height="481" fill="#f2f2f2"/><path d="M834.84349,652.45909h-320v-535h320Zm-318-2h316v-531h-316Z" transform="translate(-96.23549 -117.45909)" fill="#3f3d56"/><rect x="44.01946" y="662.8411" width="963.50956" height="2.24072" fill="#3f3d56"/><path d="M795.84349,398.45909h-242v-222h242Zm-240-2h238v-218h-238Z" transform="translate(-96.23549 -117.45909)" fill="#3f3d56"/><polygon points="459.315 222.139 457.901 220.725 533.324 145.302 577.608 189.586 697.401 69.793 698.815 71.207 577.608 192.414 533.324 148.13 459.315 222.139" fill="#3f3d56"/><circle cx="533.608" cy="147" r="15" fill="#675ce2"/><circle cx="578.608" cy="188" r="15" fill="#675ce2"/><circle cx="698.608" cy="70" r="15" fill="#675ce2"/><rect x="487.608" y="343" width="182" height="18" fill="#3f3d56"/><polygon points="620.608 491 536.608 491 536.608 407 593.608 407 593.608 409 538.608 409 538.608 489 618.608 489 618.608 449 620.608 449 620.608 491" fill="#3f3d56"/><polygon points="578.175 469.09 560.408 445.4 566.808 440.6 579.041 456.91 635.28 400.672 640.936 406.328 578.175 469.09" fill="#675ce2"/><path d="M390.52022,549.52046s-18.15437-24.20583-55.21954-9.83362l-6.80789,18.9108s-39.33447,31.01372-17.39794,78.66893L309.582,708.37119l-6.05146,20.42366-109.68264-9.07718-3.78216,34.79587L209.733,756.0264s111.19551,43.87306,128.59345,16.64151S392.03308,638.023,392.03308,638.023l94.1818,14.10291s-2.75643,29.47512.26929,33.25728,1.51287,19.66723,3.02573,22.693.252,10.89135.252,10.89135l31.24888-1.032V702.80687s3.78216-20.42367,3.78216-25.71869,22.693-74.88678-16.6415-80.93823-107.04114-17.12864-107.04114-17.12864Z" transform="translate(-96.23549 -117.45909)" fill="#2f2e41"/><path d="M355.17853,431.28514a18.75317,18.75317,0,0,0-25.97869-9.852c-6.24873,3.153-12.02946,9.41336-11.67531,21.80861.75643,26.47513,2.26929,83.964,2.26929,83.964l33.283,91.52828s-8.32075,61.271,13.61578,55.21954,6.80789-57.48884,6.80789-57.48884L347.78181,529.475l6.05145-68.83532S360.32817,444.80836,355.17853,431.28514Z" transform="translate(-96.23549 -117.45909)" fill="#ffb9b9"/></svg>