<svg width="100" height="100" viewBox="0 0 100 100" fill="none" xmlns="http://www.w3.org/2000/svg">
<path d="M50.0002 0C36.4208 0 34.7181 0.0576174 29.3851 0.300978C24.0632 0.543752 20.4284 1.38887 17.2479 2.62501C13.96 3.90275 11.1715 5.61252 8.39203 8.39222C5.61233 11.1717 3.90255 13.9602 2.62482 17.2481C1.38868 20.4284 0.543557 24.0632 0.300782 29.3851C0.0574221 34.7181 0 36.4208 0 50.0002C0 63.5792 0.0574221 65.2819 0.300782 70.6149C0.543557 75.9368 1.38868 79.5716 2.62482 82.7519C3.90255 86.0398 5.61233 88.8283 8.39203 91.6082C11.1715 94.3877 13.96 96.0974 17.2479 97.3752C20.4284 98.6111 24.0632 99.4565 29.3851 99.6992C34.7181 99.9424 36.4208 100 50.0002 100C63.5792 100 65.2819 99.9424 70.6149 99.6992C75.9368 99.4565 79.5716 98.6111 82.7519 97.3752C86.0398 96.0974 88.8283 94.3877 91.6082 91.6082C94.3877 88.8283 96.0974 86.0398 97.3752 82.7519C98.6111 79.5716 99.4565 75.9368 99.6992 70.6149C99.9424 65.2819 100 63.5792 100 50.0002C100 36.4208 99.9424 34.7181 99.6992 29.3851C99.4565 24.0632 98.6111 20.4284 97.3752 17.2481C96.0974 13.9602 94.3877 11.1717 91.6082 8.39222C88.8283 5.61252 86.0398 3.90275 82.7519 2.62501C79.5716 1.38887 75.9368 0.543752 70.6149 0.300978C65.2819 0.0576174 63.5792 0 50.0002 0V0ZM50.0002 9.00922C63.3506 9.00922 64.9321 9.06 70.2044 9.30062C75.0792 9.52308 77.7267 10.3375 79.4886 11.0221C81.8224 11.9291 83.488 13.0127 85.2376 14.7624C86.9875 16.512 88.0709 18.1778 88.9779 20.5114C89.6627 22.2733 90.4771 24.9208 90.6996 29.7956C90.94 35.0681 90.991 36.6496 90.991 50.0002C90.991 63.3506 90.94 64.9321 90.6996 70.2044C90.4771 75.0792 89.6627 77.7267 88.9779 79.4886C88.0709 81.8224 86.9875 83.488 85.2376 85.2376C83.488 86.9875 81.8224 88.0709 79.4886 88.9779C77.7267 89.6627 75.0792 90.4771 70.2044 90.6994C64.9329 90.94 63.3516 90.991 50.0002 90.991C36.6484 90.991 35.0675 90.94 29.7956 90.6994C24.9208 90.4771 22.2733 89.6627 20.5114 88.9779C18.1776 88.0709 16.512 86.9875 14.7622 85.2376C13.0126 83.488 11.929 81.8224 11.0221 79.4886C10.3373 77.7267 9.52289 75.0792 9.30043 70.2044C9.0598 64.9321 9.00902 63.3506 9.00902 50.0002C9.00902 36.6496 9.0598 35.0681 9.30043 29.7956C9.52289 24.9208 10.3373 22.2733 11.0221 20.5114C11.929 18.1778 13.0126 16.512 14.7622 14.7624C16.512 13.0127 18.1776 11.9291 20.5114 11.0221C22.2733 10.3375 24.9208 9.52308 29.7956 9.30062C35.0681 9.06 36.6496 9.00922 50.0002 9.00922V9.00922Z" fill="white"/>
<path d="M50 66.665C40.7951 66.665 33.3331 59.203 33.3331 49.9985C33.3331 40.7936 40.7951 33.3317 50 33.3317C59.2045 33.3317 66.6665 40.7936 66.6665 49.9985C66.6665 59.203 59.2045 66.665 50 66.665ZM50 24.3226C35.8195 24.3226 24.3241 35.818 24.3241 49.9985C24.3241 64.1786 35.8195 75.674 50 75.674C64.1801 75.674 75.6755 64.1786 75.6755 49.9985C75.6755 35.818 64.1801 24.3226 50 24.3226V24.3226Z" fill="white"/>
<path d="M82.6905 23.3095C82.6905 26.6234 80.0041 29.3095 76.6905 29.3095C73.3768 29.3095 70.6904 26.6234 70.6904 23.3095C70.6904 19.9958 73.3768 17.3097 76.6905 17.3097C80.0041 17.3097 82.6905 19.9958 82.6905 23.3095V23.3095Z" fill="white"/>
</svg>
