<svg width="100" height="100" viewBox="0 0 100 100" fill="none" xmlns="http://www.w3.org/2000/svg">
<path fill-rule="evenodd" clip-rule="evenodd" d="M87.7824 0C94.5256 0 100 5.47461 100 12.2176V87.7824C100 94.5254 94.5254 100 87.7824 100H66.9879V62.3213H79.9957L82.4707 46.1844H66.9879V35.7123C66.9879 31.2977 69.1506 26.9943 76.0855 26.9943H83.125V13.2561C83.125 13.2561 76.7363 12.1658 70.6285 12.1658C57.877 12.1658 49.5426 19.8941 49.5426 33.8854V46.1844H35.3682V62.3213H49.5426V100H12.2176C5.47461 100 0 94.5254 0 87.7824V12.2176C0 5.47461 5.47441 0 12.2176 0H87.7824V0Z" fill="white"/>
</svg>
