<svg width="100" height="100" viewBox="0 0 100 100" fill="none" xmlns="http://www.w3.org/2000/svg">
<path fill-rule="evenodd" clip-rule="evenodd" d="M87.7824 0C94.5256 0 100 5.47461 100 12.2176V87.7824C100 94.5254 94.5254 100 87.7824 100H12.2176C5.47461 100 0 94.5254 0 87.7824V12.2176C0 5.47461 5.47441 0 12.2176 0H87.7824V0ZM38.1873 82.9188C64.7379 82.9188 79.2553 60.9182 79.2553 41.8508C79.2553 41.2223 79.2553 40.5936 79.2254 39.9949C82.0391 37.9596 84.4936 35.4152 86.4393 32.5117C83.865 33.6492 81.0813 34.4275 78.1479 34.7867C81.1412 32.9906 83.416 30.177 84.4936 26.7945C81.71 28.4408 78.6268 29.6383 75.3342 30.2967C72.7 27.483 68.9584 25.7469 64.7979 25.7469C56.8356 25.7469 50.3701 32.2125 50.3701 40.1746C50.3701 41.3121 50.4898 42.4195 50.7592 43.4672C38.7561 42.8686 28.1299 37.1215 21.0059 28.3811C19.7785 30.5063 19.0602 32.9906 19.0602 35.6248C19.0602 40.6236 21.6045 45.0537 25.4957 47.6279C23.1311 47.568 20.916 46.9096 18.9703 45.8318V46.0115C18.9703 53.0158 23.9393 58.8229 30.5545 60.1697C29.3572 60.499 28.0701 60.6787 26.7529 60.6787C25.825 60.6787 24.9271 60.5889 24.0291 60.4092C25.8551 66.1564 31.183 70.317 37.4988 70.4367C32.56 74.2982 26.334 76.6029 19.5691 76.6029C18.4018 76.6029 17.2643 76.5432 16.1268 76.3934C22.4426 80.5242 30.0455 82.9188 38.1873 82.9188V82.9188Z" fill="white"/>
</svg>
