<?xml version='1.0' encoding='utf-8'?>
<svg xmlns="http://www.w3.org/2000/svg" version="1.1" width="600px" height="976px" viewBox="-200 0 1000 800"> <g id="layer1"> <g style="fill:rgb(0,0,0); fill-opacity:1.0; stroke-linejoin: miter"> <path d="M193.0238,500.15283L148.18448,501.15286Q154.86923,519.97363,132.01434,543.42285Q121.18091,554.7019,103.43446,568.4394Q25.764786,624.73486,14.777817,634.2418Q-9.15184,653.3745,-26.303635,669.6953Q-73.82048,714.5848,-97.46507,760.0292Q-153.45163,865.40466,-104.31053,1067.4802L703.43604,1075.9313Q711.6887,887.07745,691.30334,811.0796Q671.0419,725.0697,596.00745,640.6332Q571.2533,612.2737,547.6344,600.8489Q545.11755,596.7629,471.79837,577.56836Q455.37466,571.8651,441.54312,563.6429Q417.05582,549.82086,372.79294,511.5032Q236.05396,499.01434,193.05151,500.15283"/> </g> <g style="fill:rgb(0,0,0); fill-opacity:1.0; stroke-linejoin: miter"> <path d="M193.68515,31.96666Q126.37412,58.34981,82.961006,123.69528Q46.222008,180.22238,58.652355,240.9585Q65.859856,281.08527,88.78263,333.40106L263.7922,428.93314L461.23267,296.68323Q497.80612,230.7215,487.8615,184.23401Q480.08325,141.2647,445.547,91.26428Q411.68643,43.813824,375.7034,25.43151Q311.39532,-8.455706,194.28436,31.726149"/> </g> <g style="fill:rgb(251,207,198); fill-opacity:1.0; stroke-linejoin: miter"> <path d="M430.7326,128.67542Q416.41226,155.45871,404.8734,159.32356Q399.7678,161.49187,392.88058,160.9466Q358.79364,153.94133,357.20358,156.35582Q351.52182,157.54524,346.97263,162.1096L332.91476,179.96623Q331.7473,181.87857,322.72168,174.67719L318.76276,175.22018Q312.13983,177.34293,290.54596,220.97649L282.6479,200.5964L274.22058,225.93121L269.01523,211.33762L256.4621,229.6373L239.3096,207.48224L235.69543,230.45819L228.18054,208.41515L224.51637,229.19049L211.55885,213.41531L206.3878,231.23235L174.87961,156.28209Q164.96727,208.27373,150.17142,266.3335L146.21481,288.74237Q142.52283,313.66556,149.77013,353.77463L135.29858,354.29883Q112.75328,294.6504,98.77571,283.1112Q81.372406,268.30438,71.49107,280.24854Q60.207996,304.02917,84.75058,351.38202Q99.06297,377.70483,138.48917,394.00757Q158.9892,463.4877,156.74281,511.48074Q213.11015,583.24854,290.93958,619.9306Q364.1387,654.16815,390.75964,623.0128L396.31564,613.27075L390.4905,583.47363Q404.81433,578.0331,414.49344,548.97375L463.78015,410.06857Q475.87335,372.4618,477.7168,349.87115Q480.9306,318.38416,464.3887,286.6148Q473.81335,231.044,467.3964,204.80963Q462.4397,177.23378,430.91885,128.97244"/> </g> <g style="fill:rgb(0,0,0); fill-opacity:1.0; stroke-linejoin: miter"> <path d="M303.476,415.07895Q283.70557,415.27298,273.1308,423.02115Q260.60815,432.1868,251.67104,451.9285Q260.03702,440.8589,275.22684,438.52438Q281.5875,437.5925,291.43674,438.11124Q295.7007,438.3318,301.06757,438.83017Q324.20425,441.24353,325.53094,441.25107Q332.52777,441.80426,337.50293,441.69922Q349.15845,441.5014,355.95297,436.6693Q361.85648,432.51276,364.17395,424.98853L325.81372,416.03952Q310.94656,414.9187,303.6345,415.07663"/> </g> <g style="fill:rgb(0,0,0); fill-opacity:1.0; stroke-linejoin: miter"> <path d="M424.59262,414.81674Q444.36227,415.08145,454.90927,422.86734Q467.39905,432.0777,476.26556,451.85123Q467.93924,440.7518,452.7578,438.36298Q446.40054,437.40842,436.54947,437.89194Q432.2848,438.09723,426.91614,438.5764Q403.771,440.9071,402.4443,440.90985Q395.44553,441.43808,390.47076,441.31525Q378.81604,441.07578,372.03885,436.2194Q366.1502,432.0418,363.85965,424.50928L402.25162,415.69748Q417.1227,414.62976,424.43414,414.81387"/> </g> <g style="fill:rgb(0,0,0); fill-opacity:1.0; stroke-linejoin: miter"> <path d="M184.59802,473.32227Q245.62277,543.85675,276.93,567.0305Q310.58713,593.61066,343.9961,595.9721Q383.98334,598.1901,408.60483,571.4462Q427.92017,551.23553,435.00922,490.71674Q409.32202,529.6883,389.9896,542.3362Q371.8557,554.8359,342.69922,552.53516Q291.23993,547.1364,256.95654,529.971Q229.8388,517.4785,184.70038,473.41742"/> </g> <g> <g style="fill:rgb(255,255,255); fill-opacity:1.0; stroke-linejoin: miter"> <path d="M266.20856,273.07077Q260.67914,273.14798,256.7251,276.97406Q252.84435,280.9393,252.75691,286.47684Q252.82036,292.0157,256.67322,295.99576Q260.68524,299.8908,266.19305,299.95093Q271.72235,299.87045,275.67386,296.04254Q279.55237,292.07553,279.63702,286.53802Q279.55124,280.9794,275.75488,277.06027Q271.75897,273.15253,266.2527,273.07083"/> </g> <g style="fill:rgb(0,0,0); fill-opacity:1.0; stroke-linejoin: miter"> <path d="M266.20132,278.7713Q263.01807,278.81152,260.73236,281.02966Q258.50623,283.3063,258.45746,286.49637Q258.49658,289.6875,260.70923,291.96887Q262.98633,294.19785,266.16782,294.25034Q269.35126,294.22058,271.64523,292.00833Q273.8786,289.7376,273.93646,286.54745Q273.90625,283.3565,271.70114,281.0693Q269.38748,278.8087,266.21707,278.77133"/> </g> </g> <g> <g style="fill:rgb(255,255,255); fill-opacity:1.0; stroke-linejoin: miter"> <path d="M415.9932,270.50543Q410.46378,270.58264,406.50974,274.40872Q402.62897,278.37396,402.54156,283.9115Q402.60498,289.45035,406.45786,293.43042Q410.46988,297.32547,415.9777,297.3856Q421.507,297.3051,425.4585,293.4772Q429.337,289.5102,429.42166,283.9727Q429.33588,278.41406,425.53952,274.49493Q421.5436,270.5872,416.03732,270.5055"/> </g> <g style="fill:rgb(0,0,0); fill-opacity:1.0; stroke-linejoin: miter"> <path d="M415.98596,276.20596Q412.8027,276.2462,410.517,278.46432Q408.29086,280.74097,408.2421,283.93103Q408.28122,287.12216,410.49387,289.40353Q412.77097,291.6325,415.95245,291.685Q419.1359,291.65524,421.42987,289.443Q423.66324,287.17227,423.7211,283.98212Q423.6909,280.79117,421.48578,278.50397Q419.17212,276.24335,416.0017,276.206"/> </g> </g> <g style="fill:rgb(255,0,0); fill-opacity:0.02745098; stroke-linejoin: miter"> <path d="M439.8218,257.90704Q433.7322,258.06943,423.05768,260.9229Q440.59186,258.19193,439.82367,257.90775L439.8218,257.90704L439.8218,257.90704 Z M423.01642,260.92932L423.01642,260.92932Q408.60217,263.17856,374.1959,268.25418L388.8007,331.60684Q382.07437,300.02344,390.14087,283.26096Q396.84714,268.39417,422.9101,260.96082L423.02066,260.92932L423.01642,260.92932 Z M247.31213,262.54242Q301.97354,273.09048,318.9019,289.50925Q327.33002,297.57233,330.10736,310.15027Q332.7346,320.82968,330.86865,343.72125Q340.2673,314.81088,337.9817,301.25797Q336.7322,287.3863,320.5064,263.6173L320.49353,263.5975L247.3146,262.54242L247.31213,262.54242 Z M337.8188,342.44452Q337.11398,342.48752,324.65494,352.64297Q308.41873,365.91403,307.5716,377.92572L340.72766,397.69812Q316.90735,389.3413,316.31,377.09488Q316.01685,371.51733,321.1927,363.24472Q323.64563,359.30057,327.361,354.67807L330.6002,350.79633L337.87616,342.4996L337.8188,342.44452L337.8188,342.44452 Z M299.99872,444.03128L299.99872,444.03128Q345.57086,449.51263,366.71567,450.07196Q369.8228,450.15646,372.7669,450.15646Q380.00137,450.15646,386.25125,449.64618Q394.20667,449.05045,405.5806,446.94922L405.59796,446.94577L300.00174,444.03128L299.99872,444.03128 Z"/> </g> <g style="fill:rgb(255,0,0); fill-opacity:0.0627451; stroke-linejoin: miter"> <path d="M401.53564,387.0671Q388.73816,395.14743,381.58218,398.33972Q373.1222,402.217,365.51797,403.16727Q350.92947,404.98013,329.49323,396.04752L364.46545,426.00528L401.5347,387.0688"/> </g> <g style="fill:rgb(255,0,0); fill-opacity:0.11764706; stroke-linejoin: miter"> <path d="M95.39096,286.4534Q95.20729,286.4534,95.04363,286.50223L95.026985,286.50775Q91.888664,287.64984,94.62837,307.57947L98.71793,293.69397Q104.07585,300.00314,106.07588,302.11777Q108.22356,304.41284,108.69545,304.41284Q108.73133,304.41284,108.75752,304.39957Q109.21678,304.11935,106.617065,299.6127Q104.0925,295.3086,101.37558,291.73624Q97.30115,286.4534,95.39096,286.4534 Z M114.80438,310.23026Q114.72892,310.23044,114.61263,310.277L114.59865,310.2842Q106.24298,317.28735,100.24261,328.3224Q95.53231,337.47037,97.29297,343.98605Q100.85849,356.69067,130.08867,366.8609L106.098465,349.05997Q101.62539,345.128,100.8772,341.89816Q99.76789,337.75882,102.29465,332.03912Q103.87995,327.78293,114.345505,311.72308Q115.23153,310.23126,114.80553,310.23026 Z"/> </g> <g style="fill:rgb(255,255,255); fill-opacity:1.0; stroke-linejoin: miter"> <path d="M410.62128,446.34845L314.44232,447.14905Q348.69366,464.5127,368.01172,464.2615Q377.66992,464.19724,387.4998,460.05066Q396.107,456.58182,410.61612,446.35358"/> </g> <g style="fill:rgb(255,0,0); fill-opacity:0.03529412; stroke-linejoin: miter"> <path d="M138.11432,63.469673Q106.90336,87.657234,82.961006,123.69528Q46.222008,180.22238,58.652355,240.9585Q62.2741,261.12207,69.864006,284.3634L69.863304,284.3634Q62.247368,307.96396,84.75058,351.38202Q99.06297,377.70483,138.48917,394.00757Q156.79425,456.0484,156.96309,500.95712L156.96152,500.95712L148.18448,501.15286Q154.86923,519.97363,132.01434,543.42285Q121.18091,554.7019,103.43446,568.4394Q48.139877,608.5173,26.64208,624.8813L26.64208,624.8813L285.4522,612.7525Q211.79504,378.082,206.18643,280.3562Q203.04706,232.08769,214.63483,195.16005Q223.48996,164.07721,256.55838,123.01459Q186.86409,83.30454,138.1157,63.469673 Z"/> </g> <g style="fill:rgb(0,0,0); fill-opacity:1.0; stroke-linejoin: miter"> <path d="M416.22906,246.51286L392.77582,256.17444L440.8083,250.43599L416.2829,246.52144"/> </g> <g style="fill:rgb(0,0,0); fill-opacity:1.0; stroke-linejoin: miter"> <path d="M261.86798,250.21848L236.27571,262.14764L288.99426,253.79907L261.87546,250.21947"/> </g> </g> </svg>