<svg width="419" height="497" viewBox="0 -100 340 500" fill="none" xmlns="http://www.w3.org/2000/svg">
<g clip-path="url(#clip0)">
<rect width="419" height="497" fill="white"/>
<path d="M113.302 237.417L134.396 218.074L257.4 222.238L260.948 240.534L126.546 520.501L39.5632 519.804L113.302 237.417Z" fill="white"/>
<path d="M-33 514.559L-30.6294 493.744C-21.9418 416.265 -14.7979 361.45 -9.19796 329.3C-5.19184 307.804 -2.78289 296.177 -1.97107 294.419C1.25511 282.328 4.49518 273.568 7.74913 268.138C11.814 260.749 17.5287 256.102 24.8931 254.198L120.634 232.179L60.1503 517.699L-33 514.559Z" fill="black"/>
<path d="M415.826 534L419 356.347L287.481 267.239L258.847 226.143C211.36 311.87 180.366 370.673 165.865 402.551C149.714 436.39 134.729 476.164 120.911 521.873L415.826 534Z" fill="black"/>
<path d="M122.429 378.009L123.646 297.713L120.557 288.753L130.902 238.28L132.806 205.757C124.775 187.866 121.015 174.269 121.525 164.967C121.228 155.728 125.307 141.513 133.763 122.321C131.164 120.998 130.369 118.405 131.379 114.539C133.348 106.28 138.482 94.5525 146.782 79.3583C150.741 72.1671 153.856 70.6724 156.124 74.8743C164.809 53.0178 174.059 36.7331 183.873 26.0202C195.614 13.4836 210.375 5.38234 228.154 1.71641C248.024 -1.48837 263.568 -0.205317 274.786 5.56556C283.834 10.4129 289.332 14.0807 291.282 16.569C298.472 23.3255 304.487 31.2447 309.327 40.3265C310.931 42.4658 313.837 49.389 318.043 61.096C320.965 70.6141 322.514 79.5734 322.691 87.9739C322.77 106.44 316.776 125.461 304.706 145.038C312.397 144.515 315.327 147.539 313.497 154.111C312.194 159.882 307.706 168.683 300.032 180.513C292.696 192.228 285.352 195.555 277.998 190.492L258.116 224.75L155.019 294.846L122.429 378.009Z" fill="#FABB9B"/>
<path d="M160.392 133.641L160.737 136.505C161.846 147.099 163.93 155.08 166.989 160.448C170.573 166.453 175.515 170.921 181.813 173.85C190.094 177.688 197.923 179.179 205.3 178.322C208.748 177.932 212.084 177.193 215.309 176.105C220.129 174.419 224.856 172.438 229.488 170.164L160.392 133.641Z" fill="white"/>
<path d="M182.475 111.341L198.255 129.673L224.264 128.509L200.715 124.49L182.475 111.341Z" fill="#FF0000" fill-opacity="0.180392"/>
<path d="M261.528 113.695L260.814 114.467C259.206 115.89 257.297 116.535 255.084 116.401C252.863 116.259 250.855 115.326 249.06 113.602C247.413 111.874 246.537 109.935 246.434 107.785C246.404 107.093 246.466 106.413 246.62 105.747L246.922 104.77C247.17 104.129 247.515 103.529 247.957 102.969C249.368 101.292 251.163 100.389 253.343 100.259C255.524 100.13 257.593 100.803 259.549 102.279C261.437 103.841 262.567 105.696 262.939 107.844C263.312 109.992 262.841 111.942 261.528 113.695Z" fill="white"/>
<path d="M259.438 111.323L258.858 112.238C257.565 114.013 256.078 115.176 254.397 115.726C252.708 116.272 251.219 116.037 249.929 115.023C248.752 113.959 248.174 112.471 248.194 110.557C248.203 109.94 248.282 109.306 248.43 108.656L248.706 107.681C248.925 107.026 249.216 106.378 249.579 105.738C250.732 103.793 252.143 102.431 253.813 101.652C255.483 100.872 257.03 100.854 258.455 101.595C259.823 102.436 260.6 103.771 260.785 105.601C260.97 107.431 260.521 109.338 259.438 111.323Z" fill="black"/>
<path d="M241.874 88.0403L252.784 90.0232L263.695 92.0061L273.331 103.335L241.874 88.0403Z" fill="black"/>
<path d="M178.186 72.7201L178.007 73.7675C177.859 75.9298 178.522 77.8528 179.996 79.5364C181.482 81.2222 183.471 82.2492 185.962 82.6174C188.366 82.8648 190.462 82.3657 192.25 81.1201C192.824 80.7164 193.331 80.2472 193.771 79.7125L194.367 78.8677C194.727 78.2739 194.996 77.6275 195.172 76.9287C195.646 74.7673 195.261 72.776 194.018 70.955C192.775 69.1339 190.957 67.8982 188.565 67.2479C186.145 66.7059 183.959 66.9496 182.007 67.979C180.054 69.0084 178.781 70.5887 178.186 72.7201Z" fill="white"/>
<path d="M181.38 72.9228L181.004 73.952C180.379 76.0801 180.365 77.9856 180.962 79.6684C181.568 81.3534 182.676 82.3975 184.286 82.8006C185.866 83.0833 187.417 82.6254 188.94 81.4271C189.429 81.0386 189.889 80.5844 190.319 80.0645L190.931 79.2419C191.321 78.6626 191.66 78.0301 191.95 77.3442C192.797 75.2223 193.018 73.2542 192.611 71.4398C192.205 69.6253 191.264 68.3783 189.789 67.6989C188.27 67.1257 186.719 67.3305 185.137 68.3132C183.555 69.296 182.303 70.8325 181.38 72.9228Z" fill="black"/>
<path d="M210.904 72.5638L202.573 65.0777L194.243 57.5916L179.204 56.8967L210.904 72.5638Z" fill="black"/>
<path d="M132.818 207.58L135.27 210.765C143.097 221.58 150.999 229.332 158.978 234.022C165.324 237.597 173.067 239.023 182.208 238.3C192.11 237.631 204.661 233.936 219.861 227.215C230.914 222.225 245.626 213.906 263.997 202.259L120.156 293.746L132.818 207.58Z" fill="#FF0000" fill-opacity="0.0666667"/>
<path d="M105.543 266.419L104.772 288.355L104.002 310.29L123.564 300.092L105.543 266.419ZM172.508 286.627L167.348 322.383L209.183 318.629L190.846 302.627L172.508 286.627Z" fill="black" fill-opacity="0.0509804"/>
</g>
<defs>
<clipPath id="clip0">
<rect width="419" height="497" fill="white"/>
</clipPath>
</defs>
</svg>
