<?xml version="1.0" encoding="UTF-8"?>
<svg viewBox="0 0 90 90" xmlns="http://www.w3.org/2000/svg">
 <defs>
  <linearGradient id="j" x1="-1.9032" x2=".70863" y1="-.26174" y2=".59046">
   <stop stop-color="#fff" offset="0"/>
   <stop stop-color="#fff" offset="1"/>
  </linearGradient>
  <linearGradient id="i" x1=".28781" x2=".89579" y1=".8782" y2=".25687" gradientTransform="translate(-199.99 52.32)">
   <stop stop-color="#9f5f09" offset="0"/>
   <stop stop-color="#9f5f09" offset="1"/>
  </linearGradient>
  <linearGradient id="h" x1="1.1447" x2=".30416" y1="-.097895" y2=".90421" gradientTransform="translate(-199.99 52.32)">
   <stop stop-color="#da8410" offset="0"/>
   <stop stop-color="#c97402" offset="1"/>
  </linearGradient>
  <linearGradient id="g" x1=".065808" x2=".57059" y1=".75524" y2=".39006" gradientTransform="translate(-199.99 52.32)">
   <stop stop-color="#664314" offset="0"/>
   <stop stop-color="#a06b08" offset="1"/>
  </linearGradient>
  <radialGradient id="k" cx="-164.86" cy="72.644" r="15.009" gradientTransform="translate(-1.2205 -1.1904)" gradientUnits="userSpaceOnUse">
   <stop stop-color="#ffeed6" offset="0"/>
   <stop stop-color="#ffcd8b" offset="1"/>
  </radialGradient>
  <radialGradient id="l" cx="-165.24" cy="33.696" r="21.607" gradientTransform="translate(-17 53)" gradientUnits="userSpaceOnUse">
   <stop stop-color="#ffeed6" offset="0"/>
   <stop stop-color="#ffcd8b" offset="1"/>
  </radialGradient>
 </defs>
 <g transform="matrix(.81934 0 0 .84008 185.76 5.835)">
  <path d="m-224.37 47.305c7.466 0.071301 16.049-1.6429 17.761-9.0047 1.673-7.1925 0.801-44.422 27.318-45.291 25.446-0.83414 32.089 20.451 34.277 32.107 7.03 37.452-2.213 62.67-55.476 47.491-6.041-3.4875-9.667-3.6517-13.773-9.1898 3.614 0.098801 5.505 0.3409 6.047-3.2204-4.812 0.1965-9.52-0.2432-11.355-8.599 8.771 1.2122 12.799-2.5829 16.541-8.3337-4.442 6.9779-9.671 10.893-21.34 4.0406z" fill="url(#g)"/>
  <path d="m-204.11 40.558c3.876-5.1869 5.073-11.644 6.071-19.241 2.683 7.414 2.894 14.806-1.964 21.205" fill="url(#h)"/>
  <path d="m-225.99 96.43c2.449-6.7627 3.534-15.808 11.965-20l39.107-11.875 40.844 11.272c7.187 2.5802 10.584 13.056 14.02 20.98-2.238 1.6068-4.167 3.9866-6.829 4.5346h-92.678c-3.01-1.117-4.534-3.1248-6.429-4.9107z" fill="#7f7f00"/>
  <path d="m-186.44 53.894c0.20801 5.0595 0.763 9.7294-1.607 14.018l5.714 31.607 13.125-0.179 10.179-33.66-0.893-14.464-26.518 2.6785z" fill="url(#k)"/>
  <path d="m-195.73 26.723c0.511 7.9971 0.73399 15.994 2.526 23.991 0 0 8.144 9.1569 12.69 11.175 4.545 2.0179 5.818 1.7442 10.101-0.063099 4.284-1.8075 14.205-10.607 14.205-10.607 4.265-17.29 5.724-33.658-13.258-43.31l-13.763 20.456-0.379-7.9549-3.535 6.0609c-2.393-2.9049-6.985-1.9396-8.587 0.2525z" fill="url(#l)"/>
  <path d="m-147.5 45.916c-3.607 8.5129-13.343 11.891-22.59 10.357 8.958 7.0547 22.293 3.7481 25.447-8.3929" fill="url(#i)"/>
  <path d="m-195.77 26.765c0.843 7.8682 1.276 15.599 3.051 23.778 4.524 4.691 13.77 14.926 19.256 11.806 3.497-0.7968 4.489-1.9514 6.498-2.9609-12.072 3.5866-16.774-2.7891-22.996-10.092l-4.108-23.874-1.701 1.3425z" fill="url(#j)"/>
  <g fill="none">
   <path d="m-159.26 66.408l-9.866 33.081"/>
   <path d="m-188.56 66.579l6.041 32.998"/>
  </g>
 </g>
</svg>
